<?xml version="1.0" encoding="UTF-8"?>
<svg width="805px" height="79px" viewBox="0 0 805 79" version="1.1" xmlns="http://www.w3.org/2000/svg" xmlns:xlink="http://www.w3.org/1999/xlink">
    <title>MIHAELA DORAN</title>
    <g id="Page-1" stroke="none" stroke-width="1" fill="none" fill-rule="evenodd">
        <g id="A4" transform="translate(-93, -157)" fill="#000000">
            <g id="MIHAELA-DORAN" transform="translate(88, 157.6578)">
                <polygon id="Path" fill-rule="nonzero" points="5.984375 76.1265625 22.2765625 0.1421875 22.4765625 0.1421875 47.1609375 45.9046875 47.3609375 45.9046875 72.9078125 0.1421875 73.1078125 0.1421875 86.9078125 76.1265625 81 77.05 70.03125 14.8875 69.9 14.8875 47.1 55.7421875 24.884375 14.8875 24.684375 14.8875 11.6078125 77.05"></polygon>
                <polygon id="Path" fill-rule="nonzero" points="103.237622 1.5421875 109.443872 1.5421875 109.443872 76.3421875 103.237622 76.3421875"></polygon>
                <path d="M181.198279,1.5421875 L187.406091,1.5421875 L187.406091,76.3421875 L181.198279,76.3421875 L181.198279,1.5421875 Z M130.137341,1.5421875 L136.343591,1.5421875 L136.343591,76.3421875 L130.137341,76.3421875 L130.137341,1.5421875 Z M134.121716,48.38125 L184.182654,48.38125 L184.182654,53.603125 L134.121716,53.603125 L134.121716,48.38125 Z" id="Shape" fill-rule="nonzero"></path>
                <path d="M199.013074,76.1265625 L230.705261,0.01875 L230.905261,0.01875 L263.520886,76.1265625 L257.244324,77.05 L230.813074,12.903125 L230.613074,12.903125 L204.997449,77.05 L199.013074,76.1265625 Z M231.628699,48.38125 L250.400378,48.3578125 L250.628699,53.3421875 L231.628699,53.3421875 L231.628699,48.38125 Z" id="Shape" fill-rule="nonzero"></path>
                <path d="M275.13551,1.5421875 L281.34176,1.5421875 L281.34176,76.3421875 L275.13551,76.3421875 L275.13551,1.5421875 Z M279.465198,71.05 L312.265198,71.05 L312.265198,76.3421875 L279.465198,76.3421875 L279.465198,71.05 Z M281.465198,48.3421875 L305.865198,48.3421875 L305.865198,53.4796875 L281.465198,53.4796875 L281.465198,48.3421875 Z M279.465198,1.5421875 L312.265198,1.5421875 L312.265198,6.834375 L279.465198,6.834375 L279.465198,1.5421875 Z" id="Shape" fill-rule="nonzero"></path>
                <polygon id="Path" fill-rule="nonzero" points="328.43446 1.5421875 334.64071 1.5421875 334.64071 71.05 365.287585 71.05 365.287585 76.3421875 328.43446 76.3421875"></polygon>
                <path d="M370.749298,76.1265625 L402.441486,0.01875 L402.641486,0.01875 L435.257111,76.1265625 L428.980548,77.05 L402.549298,12.903125 L402.349298,12.903125 L376.733673,77.05 L370.749298,76.1265625 Z M383.400562,48.3421875 L403.057111,48.3421875 L403.057111,53.3265625 L383.057111,53.3265625 L383.400562,48.3421875 Z" id="Shape" fill-rule="nonzero"></path>
                <path d="M469.170929,1.5421875 L488.631867,1.5421875 C496.33395,1.5421875 502.987596,3.07421875 508.592804,6.13828125 C514.198013,9.20234375 518.47119,13.534375 521.412336,19.134375 C524.353481,24.734375 525.824054,31.3036458 525.824054,38.8421875 C525.824054,46.3807292 524.342023,52.9666667 521.377961,58.6 C518.413898,64.2333333 514.140721,68.5986979 508.558429,71.6960938 C502.976138,74.7934896 496.33395,76.3421875 488.631867,76.3421875 L469.170929,76.3421875 L469.170929,1.5421875 Z M488.324054,71.05 C494.852179,71.05 500.444627,69.6960938 505.101398,66.9882813 C509.758169,64.2804688 513.315981,60.4830729 515.774836,55.5960938 C518.23369,50.7091146 519.463117,45.0322917 519.463117,38.565625 C519.463117,32.2885417 518.23369,26.7526042 515.774836,21.9578125 C513.315981,17.1630208 509.746711,13.44375 505.067023,10.8 C500.387336,8.15625 494.806346,6.834375 488.324054,6.834375 L475.377179,6.834375 L475.377179,71.05 L488.324054,71.05 Z" id="Shape" fill-rule="nonzero"></path>
                <path d="M569.768442,77.7421875 C563.333025,77.7421875 557.534588,76.0690104 552.373129,72.7226563 C547.211671,69.3763021 543.153858,64.7364583 540.199692,58.803125 C537.245525,52.8697917 535.768442,46.2161458 535.768442,38.8421875 C535.768442,31.5140625 537.245525,24.9052083 540.199692,19.015625 C543.153858,13.1260417 547.211671,8.50807292 552.373129,5.16171875 C557.534588,1.81536458 563.333025,0.1421875 569.768442,0.1421875 C576.2049,0.1421875 582.009067,1.81536458 587.180942,5.16171875 C592.352817,8.50807292 596.404119,13.13125 599.334848,19.03125 C602.265577,24.93125 603.730942,31.5348958 603.730942,38.8421875 C603.730942,46.2161458 602.265577,52.8697917 599.334848,58.803125 C596.404119,64.7364583 592.352817,69.3763021 587.180942,72.7226563 C582.009067,76.0690104 576.2049,77.7421875 569.768442,77.7421875 Z M569.768442,72.3265625 C574.984067,72.3265625 579.700994,70.884375 583.919223,68 C588.137452,65.115625 591.445265,61.1208333 593.84266,56.015625 C596.240056,50.9104167 597.438754,45.1859375 597.438754,38.8421875 C597.438754,32.5192708 596.240056,26.8333333 593.84266,21.784375 C591.445265,16.7354167 588.137452,12.7736979 583.919223,9.89921875 C579.700994,7.02473958 574.984067,5.5875 569.768442,5.5875 C564.553858,5.5875 559.837452,7.02473958 555.619223,9.89921875 C551.400994,12.7736979 548.093181,16.7354167 545.695785,21.784375 C543.29839,26.8333333 542.099692,32.5192708 542.099692,38.8421875 C542.099692,45.1859375 543.29839,50.9104167 545.695785,56.015625 C548.093181,61.1208333 551.400994,65.115625 555.619223,68 C559.837452,70.884375 564.553858,72.3265625 569.768442,72.3265625 Z" id="Shape" fill-rule="nonzero"></path>
                <path d="M618.945138,1.5421875 L640.159201,1.5421875 C644.953993,1.5421875 649.124566,2.39535846 652.67092,4.10170037 C656.217274,5.80804228 658.963628,8.29136935 660.909982,11.5516816 C662.856336,14.8119938 663.829513,18.7249735 663.829513,23.2906208 C663.829513,28.419548 662.611545,32.8553768 660.175607,36.5981075 C657.73967,40.3408381 654.429253,43.21142 650.244357,45.2098534 C646.059461,47.2082867 641.374826,48.2075033 636.190451,48.2075033 C632.139409,48.2075033 628.028993,47.5683127 623.859201,46.2899315 L623.859201,40.8722134 C628.290451,42.2694115 632.349826,42.9680105 636.037326,42.9680105 C640.323784,42.9680105 644.092795,42.1717726 647.344357,40.5792969 C650.59592,38.9868211 653.101128,36.7240753 654.859982,33.7910595 C656.618836,30.8580437 657.498263,27.4932166 657.498263,23.6965784 C657.498263,18.2585074 655.853472,14.1109194 652.563888,11.2538143 C649.274305,8.39670928 644.780555,6.96815675 639.082638,6.96815675 L625.151388,6.96815675 L623.859201,76.3421875 L617.652951,76.3421875 L618.945138,1.5421875 Z M642.790451,43.0578125 L647.513888,40.7265625 L669.629513,76.1265625 L663.098263,77.05 L642.790451,43.0578125 Z" id="Shape" fill-rule="nonzero"></path>
                <path d="M674.620492,76.1265625 L706.31268,0.01875 L706.51268,0.01875 L739.128305,76.1265625 L732.851742,77.05 L706.420492,12.903125 L706.220492,12.903125 L680.604867,77.05 L674.620492,76.1265625 Z M706.928305,48.3421875 L726.687967,48.3265625 L726.928305,53.3265625 L706.928305,53.3265625 L706.928305,48.3421875 Z" id="Shape" fill-rule="nonzero"></path>
                <polygon id="Path" fill-rule="nonzero" points="756.531991 15.2703125 756.531991 15.2703125 756.531991 76.3421875 750.775741 76.3421875 750.775741 0 750.889804 0 803.419491 62.1578125 803.419491 62.1578125 803.419491 1.5421875 809.175741 1.5421875 809.175741 77.7 808.975741 77.7"></polygon>
            </g>
        </g>
    </g>
</svg>