<?xml version="1.0" encoding="UTF-8"?>
<svg width="805px" height="144px" viewBox="0 0 805 144" version="1.1" xmlns="http://www.w3.org/2000/svg" xmlns:xlink="http://www.w3.org/1999/xlink">
    <title>Group</title>
    <g id="Page-1" stroke="none" stroke-width="1" fill="none" fill-rule="evenodd">
        <g id="A4" transform="translate(-93, -157)" fill="#000000">
            <g id="Group" transform="translate(93, 157.6578)">
                <g id="MIHAELA-DORAN" transform="translate(-5, 0)" fill-rule="nonzero">
                    <polygon id="Path" points="5.984375 76.1265625 22.2765625 0.1421875 22.4765625 0.1421875 47.1609375 45.9046875 47.3609375 45.9046875 72.9078125 0.1421875 73.1078125 0.1421875 86.9078125 76.1265625 81 77.05 70.03125 14.8875 69.9 14.8875 47.1 55.7421875 24.884375 14.8875 24.684375 14.8875 11.6078125 77.05"></polygon>
                    <polygon id="Path" points="103.237622 1.5421875 109.443872 1.5421875 109.443872 76.3421875 103.237622 76.3421875"></polygon>
                    <path d="M181.198279,1.5421875 L187.406091,1.5421875 L187.406091,76.3421875 L181.198279,76.3421875 L181.198279,1.5421875 Z M130.137341,1.5421875 L136.343591,1.5421875 L136.343591,76.3421875 L130.137341,76.3421875 L130.137341,1.5421875 Z M134.121716,48.38125 L184.182654,48.38125 L184.182654,53.603125 L134.121716,53.603125 L134.121716,48.38125 Z" id="Shape"></path>
                    <path d="M199.013074,76.1265625 L230.705261,0.01875 L230.905261,0.01875 L263.520886,76.1265625 L257.244324,77.05 L230.813074,12.903125 L230.613074,12.903125 L204.997449,77.05 L199.013074,76.1265625 Z M231.628699,48.38125 L250.400378,48.3578125 L250.628699,53.3421875 L231.628699,53.3421875 L231.628699,48.38125 Z" id="Shape"></path>
                    <path d="M275.13551,1.5421875 L281.34176,1.5421875 L281.34176,76.3421875 L275.13551,76.3421875 L275.13551,1.5421875 Z M279.465198,71.05 L312.265198,71.05 L312.265198,76.3421875 L279.465198,76.3421875 L279.465198,71.05 Z M281.465198,48.3421875 L305.865198,48.3421875 L305.865198,53.4796875 L281.465198,53.4796875 L281.465198,48.3421875 Z M279.465198,1.5421875 L312.265198,1.5421875 L312.265198,6.834375 L279.465198,6.834375 L279.465198,1.5421875 Z" id="Shape"></path>
                    <polygon id="Path" points="328.43446 1.5421875 334.64071 1.5421875 334.64071 71.05 365.287585 71.05 365.287585 76.3421875 328.43446 76.3421875"></polygon>
                    <path d="M370.749298,76.1265625 L402.441486,0.01875 L402.641486,0.01875 L435.257111,76.1265625 L428.980548,77.05 L402.549298,12.903125 L402.349298,12.903125 L376.733673,77.05 L370.749298,76.1265625 Z M383.400562,48.3421875 L403.057111,48.3421875 L403.057111,53.3265625 L383.057111,53.3265625 L383.400562,48.3421875 Z" id="Shape"></path>
                    <path d="M469.170929,1.5421875 L488.631867,1.5421875 C496.33395,1.5421875 502.987596,3.07421875 508.592804,6.13828125 C514.198013,9.20234375 518.47119,13.534375 521.412336,19.134375 C524.353481,24.734375 525.824054,31.3036458 525.824054,38.8421875 C525.824054,46.3807292 524.342023,52.9666667 521.377961,58.6 C518.413898,64.2333333 514.140721,68.5986979 508.558429,71.6960938 C502.976138,74.7934896 496.33395,76.3421875 488.631867,76.3421875 L469.170929,76.3421875 L469.170929,1.5421875 Z M488.324054,71.05 C494.852179,71.05 500.444627,69.6960938 505.101398,66.9882813 C509.758169,64.2804688 513.315981,60.4830729 515.774836,55.5960938 C518.23369,50.7091146 519.463117,45.0322917 519.463117,38.565625 C519.463117,32.2885417 518.23369,26.7526042 515.774836,21.9578125 C513.315981,17.1630208 509.746711,13.44375 505.067023,10.8 C500.387336,8.15625 494.806346,6.834375 488.324054,6.834375 L475.377179,6.834375 L475.377179,71.05 L488.324054,71.05 Z" id="Shape"></path>
                    <path d="M569.768442,77.7421875 C563.333025,77.7421875 557.534588,76.0690104 552.373129,72.7226563 C547.211671,69.3763021 543.153858,64.7364583 540.199692,58.803125 C537.245525,52.8697917 535.768442,46.2161458 535.768442,38.8421875 C535.768442,31.5140625 537.245525,24.9052083 540.199692,19.015625 C543.153858,13.1260417 547.211671,8.50807292 552.373129,5.16171875 C557.534588,1.81536458 563.333025,0.1421875 569.768442,0.1421875 C576.2049,0.1421875 582.009067,1.81536458 587.180942,5.16171875 C592.352817,8.50807292 596.404119,13.13125 599.334848,19.03125 C602.265577,24.93125 603.730942,31.5348958 603.730942,38.8421875 C603.730942,46.2161458 602.265577,52.8697917 599.334848,58.803125 C596.404119,64.7364583 592.352817,69.3763021 587.180942,72.7226563 C582.009067,76.0690104 576.2049,77.7421875 569.768442,77.7421875 Z M569.768442,72.3265625 C574.984067,72.3265625 579.700994,70.884375 583.919223,68 C588.137452,65.115625 591.445265,61.1208333 593.84266,56.015625 C596.240056,50.9104167 597.438754,45.1859375 597.438754,38.8421875 C597.438754,32.5192708 596.240056,26.8333333 593.84266,21.784375 C591.445265,16.7354167 588.137452,12.7736979 583.919223,9.89921875 C579.700994,7.02473958 574.984067,5.5875 569.768442,5.5875 C564.553858,5.5875 559.837452,7.02473958 555.619223,9.89921875 C551.400994,12.7736979 548.093181,16.7354167 545.695785,21.784375 C543.29839,26.8333333 542.099692,32.5192708 542.099692,38.8421875 C542.099692,45.1859375 543.29839,50.9104167 545.695785,56.015625 C548.093181,61.1208333 551.400994,65.115625 555.619223,68 C559.837452,70.884375 564.553858,72.3265625 569.768442,72.3265625 Z" id="Shape"></path>
                    <path d="M618.945138,1.5421875 L640.159201,1.5421875 C644.953993,1.5421875 649.124566,2.39535846 652.67092,4.10170037 C656.217274,5.80804228 658.963628,8.29136935 660.909982,11.5516816 C662.856336,14.8119938 663.829513,18.7249735 663.829513,23.2906208 C663.829513,28.419548 662.611545,32.8553768 660.175607,36.5981075 C657.73967,40.3408381 654.429253,43.21142 650.244357,45.2098534 C646.059461,47.2082867 641.374826,48.2075033 636.190451,48.2075033 C632.139409,48.2075033 628.028993,47.5683127 623.859201,46.2899315 L623.859201,40.8722134 C628.290451,42.2694115 632.349826,42.9680105 636.037326,42.9680105 C640.323784,42.9680105 644.092795,42.1717726 647.344357,40.5792969 C650.59592,38.9868211 653.101128,36.7240753 654.859982,33.7910595 C656.618836,30.8580437 657.498263,27.4932166 657.498263,23.6965784 C657.498263,18.2585074 655.853472,14.1109194 652.563888,11.2538143 C649.274305,8.39670928 644.780555,6.96815675 639.082638,6.96815675 L625.151388,6.96815675 L623.859201,76.3421875 L617.652951,76.3421875 L618.945138,1.5421875 Z M642.790451,43.0578125 L647.513888,40.7265625 L669.629513,76.1265625 L663.098263,77.05 L642.790451,43.0578125 Z" id="Shape"></path>
                    <path d="M674.620492,76.1265625 L706.31268,0.01875 L706.51268,0.01875 L739.128305,76.1265625 L732.851742,77.05 L706.420492,12.903125 L706.220492,12.903125 L680.604867,77.05 L674.620492,76.1265625 Z M706.928305,48.3421875 L726.687967,48.3265625 L726.928305,53.3265625 L706.928305,53.3265625 L706.928305,48.3421875 Z" id="Shape"></path>
                    <polygon id="Path" points="756.531991 15.2703125 756.531991 15.2703125 756.531991 76.3421875 750.775741 76.3421875 750.775741 0 750.889804 0 803.419491 62.1578125 803.419491 62.1578125 803.419491 1.5421875 809.175741 1.5421875 809.175741 77.7 808.975741 77.7"></polygon>
                </g>
                <g id="PRIVATE-ESTATES-•-IB" transform="translate(1, 104.3422)" fill-rule="nonzero">
                    <path d="M0,1 L10.7153117,1 C13.7141307,1 16.281906,1.46154676 18.4186377,2.38464029 C20.5553694,3.30773382 22.186446,4.65501755 23.3118676,6.42649148 C24.4372892,8.19796541 25,10.3386252 25,12.8484709 C25,15.4562166 24.401513,17.7372855 23.2045389,19.6916778 C22.0075649,21.6460701 20.3322002,23.1516683 18.1784449,24.2084726 C16.0246896,25.2652768 13.5633119,25.793679 10.794312,25.793679 C8.6440146,25.793679 6.30619128,25.4394357 3.78084203,24.7309492 L3.78084203,20.9089865 C6.0795642,21.5628551 8.21177397,21.8897894 10.1774714,21.8897894 C12.1729601,21.8897894 13.9023216,21.5531939 15.3655559,20.8800029 C16.8287902,20.2068119 17.9550097,19.2230462 18.7442146,17.9287057 C19.5334195,16.6343653 19.928022,15.0687389 19.928022,13.2318265 C19.928022,10.5143299 19.0610138,8.453407 17.3269974,7.0490579 C15.5929809,5.64470881 13.1816102,4.94253426 10.0928852,4.94253426 L4.06332791,4.94253426 L4.9307351,4.19050802 L4.9307351,38 L0,38 L0,1 Z" id="Path"></path>
                    <path d="M43,1 L54.6952042,1 C57.2679954,1 59.479377,1.44833134 61.3293491,2.34499402 C63.1793211,3.2416567 64.5951512,4.49520784 65.5768393,6.10564746 C66.5585274,7.71608707 67.0493714,9.57681889 67.0493714,11.6878429 C67.0493714,14.1735214 66.4088233,16.3339246 65.1277269,18.1690524 C63.8466306,20.0041802 62.104101,21.4148825 59.9001384,22.4011592 C57.6961757,23.3874359 55.2378485,23.8805742 52.5251568,23.8805742 C50.7149292,23.8805742 48.9455059,23.6553635 47.216887,23.204942 L47.216887,19.3337734 C49.1034239,19.8327902 50.8259487,20.0822986 52.3844614,20.0822986 C54.3568464,20.0822986 56.0719522,19.7494465 57.5297789,19.0837424 C58.9876056,18.4180383 60.1012453,17.4669018 60.870698,16.2303329 C61.6401507,14.993764 62.0248771,13.5686922 62.0248771,11.9551174 C62.0248771,9.76728133 61.2987458,8.0608267 59.8464834,6.83575348 C58.3942209,5.61068025 56.3483087,4.99814364 53.7087467,4.99814364 L47.9116201,4.99814364 L47.9116201,38.5218844 L43,38.5218844 L43,1 Z M54.9058498,22.0723568 L58.4987488,20.2484633 L70,38.327503 L65.0367121,39 L54.9058498,22.0723568 Z" id="Shape"></path>
                    <polygon id="Path" points="87 1 92 1 92 38 87 38"></polygon>
                    <polygon id="Path" points="107 0.546458422 111.839557 0 123.577955 28.7378439 123.656306 28.7378439 135.217426 0 140 0.546458422 123.381682 39 123.30254 39"></polygon>
                    <path d="M150,38.324273 L166.275814,0 L166.37528,0 L183,38.324273 L178.176702,39 L166.29291,9.95634087 L166.193444,9.95634087 L154.641463,39 L150,38.324273 Z M156.127228,26.013126 L175.760002,26.013126 L175.91464,29.8902868 L155.905762,29.8902868 L156.127228,26.013126 Z" id="Shape"></path>
                    <polygon id="Path" points="202.609564 5.10097761 192 5.10097761 192 1 218 1 218 5.10097761 207.413113 5.10097761 207.413113 38 202.609564 38"></polygon>
                    <path d="M235,1 L239.941421,1 L239.941421,38 L235,38 L235,1 Z M238.212444,33.9206634 L255,33.9206634 L255,38 L238.212444,38 L238.212444,33.9206634 Z M238.212444,17.0731116 L250.700748,17.0731116 L250.700748,21.0156459 L238.212444,21.0156459 L238.212444,17.0731116 Z M238.212444,1 L255,1 L255,5.07933656 L238.212444,5.07933656 L238.212444,1 Z" id="Shape"></path>
                    <path d="M295,1 L299.941421,1 L299.941421,38 L295,38 L295,1 Z M298.212444,33.9206634 L315,33.9206634 L315,38 L298.212444,38 L298.212444,33.9206634 Z M298.212444,17.0731116 L310.700748,17.0731116 L310.700748,21.0156459 L298.212444,21.0156459 L298.212444,17.0731116 Z M298.212444,1 L315,1 L315,5.07933656 L298.212444,5.07933656 L298.212444,1 Z" id="Shape"></path>
                    <path d="M342.481469,39 C340.604252,39 338.728953,38.7019874 336.855573,38.1059621 C334.982192,37.5099368 333.363668,36.7444225 332,35.8094193 L332.767255,31.3851683 C334.192814,32.4730388 335.772464,33.3113221 337.506205,33.9000181 C339.239945,34.4887142 340.907574,34.7830622 342.50909,34.7830622 C344.099865,34.7830622 345.497804,34.4894994 346.702906,33.902374 C347.908007,33.3152485 348.838304,32.5090307 349.493795,31.4837206 C350.149287,30.4584105 350.477032,29.2895256 350.477032,27.9770659 C350.477032,26.2887202 349.967319,24.9572829 348.947893,23.9827541 C347.928467,23.0082253 346.601116,22.2097294 344.96584,21.5872664 C344.736176,21.4904156 344.490142,21.4027263 344.227741,21.3241986 L340.300931,19.811755 L340.076892,19.7340126 C338.665655,19.1906008 337.405439,18.5181419 336.296244,17.7166358 C335.187049,16.9151297 334.259566,15.8928298 333.513794,14.6497362 C332.768022,13.4066426 332.395136,11.9417083 332.395136,10.2549332 C332.395136,8.3236751 332.853315,6.58009826 333.769673,5.02420264 C334.686032,3.46830702 336.004175,2.24196601 337.724105,1.34517961 C339.444035,0.448393202 341.456417,0 343.76125,0 C345.256374,0 346.69421,0.200245651 348.074757,0.600736952 C349.455305,1.00122825 350.803883,1.57212468 352.120492,2.31342622 L351.380091,6.68113724 C350.226652,5.87649001 348.990476,5.25625201 347.671565,4.82042324 C346.352654,4.38459447 345.043845,4.16668009 343.745138,4.16668009 C342.379936,4.16668009 341.16486,4.40893806 340.09991,4.89345401 C339.03496,5.37796996 338.203,6.05919781 337.60403,6.93713756 C337.005059,7.81507732 336.705574,8.83174936 336.705574,9.98715367 C336.705574,11.0797358 336.95327,11.9902646 337.448661,12.7187399 C337.944052,13.4472153 338.560413,14.0302835 339.297745,14.4679446 C340.035077,14.9056057 340.955399,15.3275612 342.058712,15.7338112 C342.138506,15.7673164 342.190296,15.7877336 342.214081,15.7950628 C342.237866,15.8023921 342.289911,15.8228093 342.370217,15.8563144 L346.311606,17.3020095 C346.48654,17.3501732 346.697535,17.4339361 346.944591,17.5532982 C348.593166,18.1862315 349.998649,18.9213817 351.16104,19.7587488 C352.323431,20.5961159 353.253856,21.6532297 353.952313,22.9300902 C354.650771,24.2069507 355,25.7463555 355,27.5483046 C355,29.7889618 354.45461,31.7793774 353.363829,33.5195514 C352.273048,35.2597254 350.774855,36.6081769 348.86925,37.5649062 C346.963644,38.5216354 344.834384,39 342.481469,39 Z" id="Path"></path>
                    <polygon id="Path" points="380.609564 5.10097761 370 5.10097761 370 1 396 1 396 5.10097761 385.413113 5.10097761 385.413113 38 380.609564 38"></polygon>
                    <path d="M406,38.324273 L422.275814,0 L422.37528,0 L439,38.324273 L434.176702,39 L422.29291,9.95634087 L422.193444,9.95634087 L410.641463,39 L406,38.324273 Z M412.127228,26.013126 L431.760002,26.013126 L431.91464,29.8902868 L411.905762,29.8902868 L412.127228,26.013126 Z" id="Shape"></path>
                    <polygon id="Path" points="458.609564 5.10097761 448 5.10097761 448 1 474 1 474 5.10097761 463.413113 5.10097761 463.413113 38 458.609564 38"></polygon>
                    <path d="M491,1 L495.941421,1 L495.941421,38 L491,38 L491,1 Z M494.212444,33.9206634 L511,33.9206634 L511,38 L494.212444,38 L494.212444,33.9206634 Z M494.212444,17.0731116 L506.700748,17.0731116 L506.700748,21.0156459 L494.212444,21.0156459 L494.212444,17.0731116 Z M494.212444,1 L511,1 L511,5.07933656 L494.212444,5.07933656 L494.212444,1 Z" id="Shape"></path>
                    <path d="M537.481469,39 C535.604252,39 533.728953,38.7019874 531.855573,38.1059621 C529.982192,37.5099368 528.363668,36.7444225 527,35.8094193 L527.767255,31.3851683 C529.192814,32.4730388 530.772464,33.3113221 532.506205,33.9000181 C534.239945,34.4887142 535.907574,34.7830622 537.50909,34.7830622 C539.099865,34.7830622 540.497804,34.4894994 541.702906,33.902374 C542.908007,33.3152485 543.838304,32.5090307 544.493795,31.4837206 C545.149287,30.4584105 545.477032,29.2895256 545.477032,27.9770659 C545.477032,26.2887202 544.967319,24.9572829 543.947893,23.9827541 C542.928467,23.0082253 541.601116,22.2097294 539.96584,21.5872664 C539.736176,21.4904156 539.490142,21.4027263 539.227741,21.3241986 L535.300931,19.811755 L535.076892,19.7340126 C533.665655,19.1906008 532.405439,18.5181419 531.296244,17.7166358 C530.187049,16.9151297 529.259566,15.8928298 528.513794,14.6497362 C527.768022,13.4066426 527.395136,11.9417083 527.395136,10.2549332 C527.395136,8.3236751 527.853315,6.58009826 528.769673,5.02420264 C529.686032,3.46830702 531.004175,2.24196601 532.724105,1.34517961 C534.444035,0.448393202 536.456417,0 538.76125,0 C540.256374,0 541.69421,0.200245651 543.074757,0.600736952 C544.455305,1.00122825 545.803883,1.57212468 547.120492,2.31342622 L546.380091,6.68113724 C545.226652,5.87649001 543.990476,5.25625201 542.671565,4.82042324 C541.352654,4.38459447 540.043845,4.16668009 538.745138,4.16668009 C537.379936,4.16668009 536.16486,4.40893806 535.09991,4.89345401 C534.03496,5.37796996 533.203,6.05919781 532.60403,6.93713756 C532.005059,7.81507732 531.705574,8.83174936 531.705574,9.98715367 C531.705574,11.0797358 531.95327,11.9902646 532.448661,12.7187399 C532.944052,13.4472153 533.560413,14.0302835 534.297745,14.4679446 C535.035077,14.9056057 535.955399,15.3275612 537.058712,15.7338112 C537.138506,15.7673164 537.190296,15.7877336 537.214081,15.7950628 C537.237866,15.8023921 537.289911,15.8228093 537.370217,15.8563144 L541.311606,17.3020095 C541.48654,17.3501732 541.697535,17.4339361 541.944591,17.5532982 C543.593166,18.1862315 544.998649,18.9213817 546.16104,19.7587488 C547.323431,20.5961159 548.253856,21.6532297 548.952313,22.9300902 C549.650771,24.2069507 550,25.7463555 550,27.5483046 C550,29.7889618 549.45461,31.7793774 548.363829,33.5195514 C547.273048,35.2597254 545.774855,36.6081769 543.86925,37.5649062 C541.963644,38.5216354 539.834384,39 537.481469,39 Z" id="Path"></path>
                    <path d="M593.895833,25 C592.576389,25 591.430556,24.53125 590.458333,23.59375 C589.486111,22.65625 589,21.4930556 589,20.1041667 C589,18.7152778 589.486111,17.5173611 590.458333,16.5104167 C591.430556,15.5034722 592.576389,15 593.895833,15 C595.284722,15 596.482639,15.4861111 597.489583,16.4583333 C598.496528,17.4305556 599,18.6458333 599,20.1041667 C599,21.4930556 598.496528,22.65625 597.489583,23.59375 C596.482639,24.53125 595.284722,25 593.895833,25 Z" id="Path"></path>
                    <polygon id="Path" points="639 1 644 1 644 38 639 38"></polygon>
                    <path d="M668.197602,34.0574657 L677.447339,34.0574657 C678.803616,34.0574657 680.071738,33.7575827 681.251704,33.1578167 C682.43167,32.5580506 683.368079,31.7050329 684.060932,30.5987634 C684.753784,29.4924939 685.100211,28.211035 685.100211,26.7543867 C685.100211,24.5938893 684.32372,22.9339698 682.770739,21.7746282 C681.217758,20.6152866 679.117775,20.0356158 676.470789,20.0356158 L669.239205,20.0356158 L669.239205,16.2306568 L674.053033,16.2306568 C675.508436,16.2306568 676.732286,15.9583403 677.724583,15.4137074 C678.71688,14.8690745 679.461103,14.1364994 679.957252,13.2159822 C680.4534,12.295465 680.701475,11.2612035 680.701475,10.1131977 C680.701475,8.3272964 680.205197,7.00435885 679.212642,6.14438503 C678.220087,5.28441121 676.799145,4.8544243 674.949817,4.8544243 L669.003779,4.8544243 L669.07038,1 L675.960442,1 C677.887729,1 679.556228,1.28571329 680.965941,1.85713987 C682.375653,2.42856645 683.476886,3.31327289 684.269639,4.51125919 C685.062393,5.70924549 685.45877,7.21664717 685.45877,9.03346424 C685.45877,10.5395778 685.066007,11.9932633 684.280481,13.3945208 C683.494956,14.7957783 682.362746,15.9341229 680.883852,16.8095546 C679.404957,17.6849864 677.67089,18.1227022 675.681649,18.1227022 L677.234372,16.5985545 C680.112653,16.5985545 682.504466,17.0472197 684.40981,17.9445501 C686.315155,18.8418804 687.723189,20.0545517 688.633914,21.5825639 C689.544638,23.1105761 690,24.8419884 690,26.7768006 C690,28.9713054 689.506175,30.9214468 688.518524,32.6272247 C687.530874,34.3330026 686.156914,35.6549096 684.396645,36.5929458 C682.636376,37.5309819 680.640295,38 678.408401,38 L668.109318,38 L668.197602,34.0574657 Z M665,1 L669.76349,1 L669.76349,38 L665,38 L665,1 Z" id="Shape"></path>
                    <polygon id="Path" points="707 1 712 1 712 38 707 38"></polygon>
                    <polygon id="Path" points="748.760275 5.10097761 729 5.10097761 729 1 756 1 736.351798 33.8990224 754.585677 33.8990224 754.585677 38 729 38"></polygon>
                    <path d="M770,38.324273 L786.275814,0 L786.37528,0 L803,38.324273 L798.176702,39 L786.29291,9.95634087 L786.193444,9.95634087 L774.641463,39 L770,38.324273 Z M776.127228,26.013126 L795.760002,26.013126 L795.91464,29.8902868 L775.905762,29.8902868 L776.127228,26.013126 Z" id="Shape"></path>
                </g>
            </g>
        </g>
    </g>
</svg>